<svg width="513" height="512" viewBox="0 0 513 512" fill="none" xmlns="http://www.w3.org/2000/svg">
<path d="M256.5 512C397.885 512 512.5 397.385 512.5 256C512.5 114.615 397.885 0 256.5 0C115.115 0 0.5 114.615 0.5 256C0.5 397.385 115.115 512 256.5 512Z" fill="#FF5B6F"/>
<path d="M404.92 258.444L138.488 362.892C137.016 363.468 135.416 362.764 134.84 361.292L90.2319 247.5C89.6559 246.028 90.3599 244.428 91.8319 243.852L358.328 139.404C359.8 138.828 361.4 139.532 361.976 141.004L406.584 254.796C407.096 256.204 406.392 257.868 404.92 258.444Z" fill="#E6E8EA"/>
<path d="M187.584 210.127L185.797 210.828L186.498 212.616L188.285 211.915L187.584 210.127Z" fill="#2D4454"/>
<path d="M189.373 214.705L187.586 215.406L188.287 217.194L190.074 216.493L189.373 214.705Z" fill="#2D4454"/>
<path d="M191.194 219.299L189.406 220L190.107 221.788L191.895 221.087L191.194 219.299Z" fill="#2D4454"/>
<path d="M193.006 223.924L191.219 224.625L191.92 226.413L193.707 225.712L193.006 223.924Z" fill="#2D4454"/>
<path d="M194.811 228.565L193.023 229.266L193.724 231.053L195.512 230.352L194.811 228.565Z" fill="#2D4454"/>
<path d="M196.577 233.205L194.789 233.906L195.49 235.694L197.277 234.993L196.577 233.205Z" fill="#2D4454"/>
<path d="M198.459 237.799L196.672 238.5L197.373 240.288L199.16 239.587L198.459 237.799Z" fill="#2D4454"/>
<path d="M200.264 242.424L198.477 243.125L199.178 244.913L200.965 244.212L200.264 242.424Z" fill="#2D4454"/>
<path d="M202.03 247.049L200.242 247.75L200.943 249.538L202.731 248.837L202.03 247.049Z" fill="#2D4454"/>
<path d="M203.897 251.627L202.109 252.328L202.81 254.116L204.598 253.415L203.897 251.627Z" fill="#2D4454"/>
<path d="M205.694 256.299L203.906 257L204.607 258.788L206.395 258.087L205.694 256.299Z" fill="#2D4454"/>
<path d="M207.459 260.862L205.672 261.562L206.373 263.35L208.16 262.649L207.459 260.862Z" fill="#2D4454"/>
<path d="M209.256 265.487L207.469 266.188L208.17 267.975L209.957 267.274L209.256 265.487Z" fill="#2D4454"/>
<path d="M211.116 270.127L209.328 270.828L210.029 272.616L211.817 271.915L211.116 270.127Z" fill="#2D4454"/>
<path d="M212.897 274.674L211.109 275.375L211.81 277.163L213.598 276.462L212.897 274.674Z" fill="#2D4454"/>
<path d="M214.709 279.362L212.922 280.062L213.623 281.85L215.41 281.149L214.709 279.362Z" fill="#2D4454"/>
<path d="M216.514 283.987L214.727 284.688L215.427 286.475L217.215 285.774L216.514 283.987Z" fill="#2D4454"/>
<path d="M218.35 288.565L216.562 289.266L217.263 291.053L219.051 290.352L218.35 288.565Z" fill="#2D4454"/>
<path d="M220.131 293.174L218.344 293.875L219.045 295.663L220.832 294.962L220.131 293.174Z" fill="#2D4454"/>
<path d="M221.944 297.799L220.156 298.5L220.857 300.288L222.645 299.587L221.944 297.799Z" fill="#2D4454"/>
<path d="M223.78 302.424L221.992 303.125L222.693 304.913L224.481 304.212L223.78 302.424Z" fill="#2D4454"/>
<path d="M225.584 306.987L223.797 307.688L224.498 309.475L226.285 308.774L225.584 306.987Z" fill="#2D4454"/>
<path d="M227.373 311.627L225.586 312.328L226.287 314.116L228.074 313.415L227.373 311.627Z" fill="#2D4454"/>
<path d="M229.163 316.362L227.375 317.062L228.076 318.85L229.863 318.149L229.163 316.362Z" fill="#2D4454"/>
<path d="M231.03 320.877L229.242 321.578L229.943 323.366L231.731 322.665L231.03 320.877Z" fill="#2D4454"/>
<path d="M182.723 214.393L96.9219 248.031L139.414 356.415L225.215 322.776L182.723 214.393Z" fill="#7C2A34"/>
<path d="M255.051 196.828L204.047 216.824L205.565 220.697L256.569 200.701L255.051 196.828Z" fill="#BBC2C6"/>
<path d="M380.309 246.891L329.305 266.887L330.823 270.76L381.827 250.764L380.309 246.891Z" fill="#BBC2C6"/>
<path d="M352.644 176.045L210 231.969L211.518 235.842L354.162 179.918L352.644 176.045Z" fill="#BBC2C6"/>
<path d="M358.496 191.17L215.852 247.094L217.37 250.967L360.014 195.043L358.496 191.17Z" fill="#BBC2C6"/>
<path d="M371.261 223.576L228.617 279.5L230.136 283.373L372.78 227.449L371.261 223.576Z" fill="#BBC2C6"/>
<path d="M189.689 281.497L179.129 289.497C174.841 286.873 169.529 283.929 163.833 281.049L179.769 256.153L172.537 252.953L150.329 274.521C149.561 274.137 148.729 273.817 147.961 273.497C129.209 265.241 121.785 264.729 120.569 267.545C119.353 270.361 124.729 275.481 143.545 283.801C144.313 284.121 145.081 284.505 145.913 284.825L145.337 315.929L152.569 319.129L159.801 290.393C165.753 292.633 171.577 294.553 176.377 295.961L177.785 309.209L182.649 311.385L185.209 298.009C187.129 298.265 188.409 298.137 188.601 297.561C188.857 296.985 188.089 296.025 186.617 294.745L194.617 283.801L189.689 281.497Z" fill="#E6E8EA"/>
<path d="M420.205 372.716H133.933C132.397 372.716 131.117 371.436 131.117 369.9V247.66C131.117 246.124 132.397 244.844 133.933 244.844H420.141C421.677 244.844 422.957 246.124 422.957 247.66V369.9C423.021 371.5 421.741 372.716 420.205 372.716Z" fill="#F7F8F9"/>
<path d="M235.459 248.391H233.539V250.311H235.459V248.391Z" fill="#2D4454"/>
<path d="M235.459 253.297H233.539V255.217H235.459V253.297Z" fill="#2D4454"/>
<path d="M235.459 258.266H233.539V260.186H235.459V258.266Z" fill="#2D4454"/>
<path d="M235.459 263.188H233.539V265.108H235.459V263.188Z" fill="#2D4454"/>
<path d="M235.459 268.188H233.539V270.108H235.459V268.188Z" fill="#2D4454"/>
<path d="M235.459 273.156H233.539V275.076H235.459V273.156Z" fill="#2D4454"/>
<path d="M235.459 278.125H233.539V280.045H235.459V278.125Z" fill="#2D4454"/>
<path d="M235.459 283.031H233.539V284.951H235.459V283.031Z" fill="#2D4454"/>
<path d="M235.459 288.062H233.539V289.983H235.459V288.062Z" fill="#2D4454"/>
<path d="M235.459 292.969H233.539V294.889H235.459V292.969Z" fill="#2D4454"/>
<path d="M235.459 297.938H233.539V299.858H235.459V297.938Z" fill="#2D4454"/>
<path d="M235.459 302.891H233.539V304.811H235.459V302.891Z" fill="#2D4454"/>
<path d="M235.459 307.891H233.539V309.811H235.459V307.891Z" fill="#2D4454"/>
<path d="M235.459 312.844H233.539V314.764H235.459V312.844Z" fill="#2D4454"/>
<path d="M235.459 317.766H233.539V319.686H235.459V317.766Z" fill="#2D4454"/>
<path d="M235.459 322.766H233.539V324.686H235.459V322.766Z" fill="#2D4454"/>
<path d="M235.459 327.656H233.539V329.576H235.459V327.656Z" fill="#2D4454"/>
<path d="M235.459 332.656H233.539V334.576H235.459V332.656Z" fill="#2D4454"/>
<path d="M235.459 337.562H233.539V339.483H235.459V337.562Z" fill="#2D4454"/>
<path d="M235.459 342.562H233.539V344.483H235.459V342.562Z" fill="#2D4454"/>
<path d="M235.459 347.531H233.539V349.451H235.459V347.531Z" fill="#2D4454"/>
<path d="M235.459 352.531H233.539V354.451H235.459V352.531Z" fill="#2D4454"/>
<path d="M235.459 357.391H233.539V359.311H235.459V357.391Z" fill="#2D4454"/>
<path d="M235.459 362.438H233.539V364.358H235.459V362.438Z" fill="#2D4454"/>
<path d="M235.459 367.344H233.539V369.264H235.459V367.344Z" fill="#2D4454"/>
<path d="M229.426 250.578H137.266V366.994H229.426V250.578Z" fill="#7C2A34"/>
<path d="M303.182 260.547H248.398V264.707H303.182V260.547Z" fill="#BBC2C6"/>
<path d="M401.518 352.953H346.734V357.113H401.518V352.953Z" fill="#BBC2C6"/>
<path d="M401.614 276.844H248.398V281.004H401.614V276.844Z" fill="#BBC2C6"/>
<path d="M401.614 293.078H248.398V297.238H401.614V293.078Z" fill="#BBC2C6"/>
<path d="M401.614 327.906H248.398V332.066H401.614V327.906Z" fill="#BBC2C6"/>
<path d="M211.41 315.593L198.674 319.177C195.666 315.209 191.762 310.473 187.538 305.737L211.474 288.393L205.906 282.761L177.362 294.729C176.786 294.089 176.146 293.513 175.57 292.873C161.106 278.345 154.45 275.145 152.21 277.321C150.034 279.497 153.17 286.281 167.634 300.809C168.21 301.385 168.85 302.025 169.426 302.601L157.522 331.337L163.09 336.969L180.306 312.841C185.042 317.065 189.714 321.033 193.682 324.041L190.162 336.905L193.938 340.681L201.17 329.161C202.898 330.057 204.05 330.441 204.498 329.993C204.946 329.545 204.562 328.329 203.666 326.601L215.122 319.305L211.41 315.593Z" fill="white"/>
</svg>
